{"title":"The Unborn 2009 DVDrip English Klam","uid":8202459,"size":1188047838,"categoryP":"video","categoryS":"movies","magnet":"?xt=urn:btih:0df4728d11eb34facb0f5fb1e69d42bd65167f7f&amp;dn=The+Unborn+2009+DVDrip+English+Klam&amp;tr=udp%3A%2F%2Ftracker.openbittorrent.com%3A80&amp;tr=udp%3A%2F%2Fopen.demonii.com%3A1337&amp;tr=udp%3A%2F%2Ftracker.coppersurfer.tk%3A6969&amp;tr=udp%3A%2F%2Fexodus.desync.com%3A6969","seeders":0,"leechers":1,"uploader":"Klambake","files":-1,"time":1362050019,"description":"With: Odette Yustman, Cam Gigandet and Gary Oldman\n\nHaar hele leven heeft Casey Beldon (Odette Yustman) haar moeder gehaat, vanwege het feit dat ze haar op jonge leeftijd heeft verlaten. Maar als Casey geteisterd wordt door nachtmerries en achtervolgd wordt door geesten begint ze langzamerhand te begrijpen wat de reden was van haar moeder om dit te doen. Langzaam maar zeker komt ze erachter dat een geest haar lichaam aan het overnemen is en moet ze alles doen om dit te stoppen. Haar enige redding lijkt een man genaamd Sendak (Gary Oldman)..\n\nA young woman fights the spirit that is slowly taking possession of her.\n &lt;a href=&quot;\nhttp://www.imdb.com/title/tt1139668&quot; rel=&quot;nofollow&quot; target=&quot;_NEW&quot;&gt;\nhttp://www.imdb.com/title/tt1139668&lt;/a&gt;\t\n\n------------------------ Dutch Friends ------------------------\n---------------------------------------------------------------\n- Bezoek ook eens mijn vrienden op: &lt;a href=&quot; http://www.Film-Test.nl&quot; rel=&quot;nofollow&quot; target=&quot;_NEW&quot;&gt; http://www.Film-Test.nl&lt;/a&gt; --\n----- voor mijn Nederlandse Sync. ondertitels ---- en meer ----\n------- http://www.Film-Test.nl ---- Over Films en meer -------\n---------------------------------------------------------------\n\nGeneral:\n\nComplete name                    : The UnbornThe Unborn.avi\nFormat                           : AVI\nFormat/Info                      : Audio Video Interleave\nFile size                        : 1.11 GiB\nDuration                         : 1h 25mn\nOverall bit rate                 : 1 861 Kbps\n\nVideo:\n\nFormat                           : MPEG-4 Visual\nFormat profile                   : Simple@L3\nFormat settings, BVOP            : No\nFormat settings, QPel            : No\nFormat settings, GMC             : No warppoints\nFormat settings, Matrix          : Default (H.263)\nCodec ID                         : XVID\nCodec ID/Hint                    : XviD\nDuration                         : 1h 25mn\nBit rate                         : 1 466 Kbps\nWidth                            : 720 pixels\nHeight                           : 304 pixels\nDisplay aspect ratio             : 2.35:1\nFrame rate                       : 25.000 fps\nColor space                      : YUV\nChroma subsampling               : 4:2:0\nBit depth                        : 8 bits\nScan type                        : Progressive\nCompression mode                 : Lossy\nBits/(Pixel*Frame)               : 0.268\nStream size                      : 892 MiB (79%)\nWriting library                  : XviD 1.1.2 (UTC 2006-11-01)\n\nAudio:\n\nFormat                           : AC-3\nFormat/Info                      : Audio Coding 3\nMode extension                   : CM (complete main)\nCodec ID                         : 2000\nDuration                         : 1h 25mn\nBit rate mode                    : Constant\nBit rate                         : 384 Kbps\nChannel(s)                       : 6 channels\nChannel positions                : Front: L C R, Side: L R, LFE\nSampling rate                    : 48.0 KHz\nBit depth                        : 16 bits\nCompression mode                 : Lossy\nStream size                      : 234 MiB (21%)\nAlignment                        : Aligned on interleaves\nInterleave, duration             : 32 ms (0.80 video frame)\nInterleave, preload duration     : 32 ms","torrent":{"xt":"urn:btih:0df4728d11eb34facb0f5fb1e69d42bd65167f7f","amp;dn":"The+Unborn+2009+DVDrip+English+Klam","amp;tr":["udp%3A%2F%2Ftracker.openbittorrent.com%3A80","udp%3A%2F%2Fopen.demonii.com%3A1337","udp%3A%2F%2Ftracker.coppersurfer.tk%3A6969","udp%3A%2F%2Fexodus.desync.com%3A6969"],"infoHash":"0df4728d11eb34facb0f5fb1e69d42bd65167f7f","infoHashBuffer":{"type":"Buffer","data":[13,244,114,141,17,235,52,250,203,15,95,177,230,157,66,189,101,22,127,127]},"announce":[],"urlList":[]}}